<svg width="100" height="24" viewBox="0 0 100 24" fill="none" xmlns="http://www.w3.org/2000/svg">
<path d="M0 20H4V24C1.79086 24 0 22.2091 0 20Z" fill="#74150F"/>
<path d="M0 4C0 1.79086 1.79086 0 4 0H96C98.2091 0 100 1.79086 100 4V16C100 18.2091 98.2091 20 96 20H0V4Z" fill="white"/>
<path d="M0 4C0 1.79086 1.79086 0 4 0H96C98.2091 0 100 1.79086 100 4V16C100 18.2091 98.2091 20 96 20H0V4Z" fill="#E03C31"/>
<path d="M9.87305 12.1426L12.041 5.46875H13.6699L10.5996 14H9.16406L6.10547 5.46875H7.72852L9.87305 12.1426ZM16.2012 14H14.7246V5.46875H16.2012V14ZM19.5059 10.8301V14H18.0234V5.46875H21.2871C22.2402 5.46875 22.9961 5.7168 23.5547 6.21289C24.1172 6.70898 24.3984 7.36523 24.3984 8.18164C24.3984 9.01758 24.123 9.66797 23.5723 10.1328C23.0254 10.5977 22.2578 10.8301 21.2695 10.8301H19.5059ZM19.5059 9.64062H21.2871C21.8145 9.64062 22.2168 9.51758 22.4941 9.27148C22.7715 9.02148 22.9102 8.66211 22.9102 8.19336C22.9102 7.73242 22.7695 7.36523 22.4883 7.0918C22.207 6.81445 21.8203 6.67188 21.3281 6.66406H19.5059V9.64062ZM31.1367 10.3145L30.1699 11.3398V14H28.6875V5.46875H30.1699V9.4707L30.9902 8.45703L33.4863 5.46875H35.2793L32.1094 9.24805L35.4609 14H33.7031L31.1367 10.3145ZM37.8223 14H36.3457V5.46875H37.8223V14ZM41.5664 5.46875L44.0273 12.0078L46.4824 5.46875H48.3984V14H46.9219V11.1875L47.0684 7.42578L44.5488 14H43.4883L40.9746 7.43164L41.1211 11.1875V14H39.6445V5.46875H41.5664ZM59.6543 11.2227C59.5684 12.1328 59.2324 12.8438 58.6465 13.3555C58.0605 13.8633 57.2812 14.1172 56.3086 14.1172C55.6289 14.1172 55.0293 13.957 54.5098 13.6367C53.9941 13.3125 53.5957 12.8535 53.3145 12.2598C53.0332 11.666 52.8867 10.9766 52.875 10.1914V9.39453C52.875 8.58984 53.0176 7.88086 53.3027 7.26758C53.5879 6.6543 53.9961 6.18164 54.5273 5.84961C55.0625 5.51758 55.6797 5.35156 56.3789 5.35156C57.3203 5.35156 58.0781 5.60742 58.6523 6.11914C59.2266 6.63086 59.5605 7.35352 59.6543 8.28711H58.1777C58.1074 7.67383 57.9277 7.23242 57.6387 6.96289C57.3535 6.68945 56.9336 6.55273 56.3789 6.55273C55.7344 6.55273 55.2383 6.78906 54.8906 7.26172C54.5469 7.73047 54.3711 8.41992 54.3633 9.33008V10.0859C54.3633 11.0078 54.5273 11.7109 54.8555 12.1953C55.1875 12.6797 55.6719 12.9219 56.3086 12.9219C56.8906 12.9219 57.3281 12.791 57.6211 12.5293C57.9141 12.2676 58.0996 11.832 58.1777 11.2227H59.6543ZM67.2246 5.46875V6.75781C67.6504 6.71875 67.9551 6.57227 68.1387 6.31836C68.3223 6.06445 68.4141 5.62305 68.4141 4.99414H69.4746C69.4746 5.88477 69.291 6.53906 68.9238 6.95703C68.5605 7.375 67.9941 7.60156 67.2246 7.63672V11.1699C67.2246 12.0762 66.9336 12.7949 66.3516 13.3262C65.7734 13.8535 65.002 14.1172 64.0371 14.1172C63.0605 14.1172 62.2852 13.8574 61.7109 13.3379C61.1367 12.8145 60.8496 12.0898 60.8496 11.1641V5.46875H62.3262V11.1758C62.3262 11.7461 62.4707 12.1816 62.7598 12.4824C63.0488 12.7832 63.4746 12.9336 64.0371 12.9336C65.1777 12.9336 65.748 12.332 65.748 11.1289V5.46875H67.2246ZM76.1719 9.95703C76.1719 10.793 76.0273 11.5273 75.7383 12.1602C75.4492 12.7891 75.0352 13.2734 74.4961 13.6133C73.9609 13.9492 73.3418 14.1172 72.6387 14.1172C71.9512 14.1172 71.3359 13.9492 70.793 13.6133C70.2539 13.2734 69.8359 12.791 69.5391 12.166C69.2461 11.541 69.0977 10.8203 69.0938 10.0039V9.52344C69.0938 8.69141 69.2402 7.95703 69.5332 7.32031C69.8301 6.68359 70.2461 6.19727 70.7812 5.86133C71.3203 5.52148 71.9355 5.35156 72.627 5.35156C73.623 5.35156 74.4375 5.67969 75.0703 6.33594C75.3789 6.28516 75.6074 6.13281 75.7559 5.87891C75.9043 5.62109 75.9785 5.23828 75.9785 4.73047H77.0742C77.0742 5.37109 76.9551 5.89648 76.7168 6.30664C76.4824 6.71289 76.123 6.98438 75.6387 7.12109C75.9785 7.77344 76.1562 8.53516 76.1719 9.40625V9.95703ZM74.6895 9.51172C74.6895 8.55078 74.5098 7.82227 74.1504 7.32617C73.791 6.83008 73.2832 6.58203 72.627 6.58203C71.9863 6.58203 71.4844 6.83398 71.1211 7.33789C70.7617 7.83789 70.5781 8.54688 70.5703 9.46484V9.95703C70.5703 10.8789 70.75 11.5996 71.1094 12.1191C71.4727 12.6387 71.9824 12.8984 72.6387 12.8984C73.2988 12.8984 73.8047 12.6484 74.1562 12.1484C74.5117 11.6484 74.6895 10.918 74.6895 9.95703V9.51172ZM84.5215 14H83.0391L79.2363 7.94727V14H77.7539V5.46875H79.2363L83.0508 11.5449V5.46875H84.5215V14ZM92.8125 12.8926C92.5039 13.2949 92.0762 13.5996 91.5293 13.8066C90.9824 14.0137 90.3613 14.1172 89.666 14.1172C88.9512 14.1172 88.3184 13.9551 87.7676 13.6309C87.2168 13.3066 86.791 12.8438 86.4902 12.2422C86.1934 11.6367 86.0391 10.9316 86.0273 10.127V9.45898C86.0273 8.16992 86.3359 7.16406 86.9531 6.44141C87.5703 5.71484 88.4316 5.35156 89.5371 5.35156C90.4863 5.35156 91.2402 5.58594 91.7988 6.05469C92.3574 6.52344 92.6934 7.19922 92.8066 8.08203H91.3535C91.1895 7.05469 90.5938 6.54102 89.5664 6.54102C88.9023 6.54102 88.3965 6.78125 88.0488 7.26172C87.7051 7.73828 87.5273 8.43945 87.5156 9.36523V10.0215C87.5156 10.9434 87.709 11.6602 88.0957 12.1719C88.4863 12.6797 89.0273 12.9336 89.7188 12.9336C90.4766 12.9336 91.0156 12.7617 91.3359 12.418V10.748H89.5781V9.62305H92.8125V12.8926Z" fill="white"/>
</svg>
